<?xml version="1.0" standalone="no"?>
<!DOCTYPE svg PUBLIC "-//W3C//DTD SVG 20010904//EN"
 "http://www.w3.org/TR/2001/REC-SVG-20010904/DTD/svg10.dtd">
<svg version="1.0" xmlns="http://www.w3.org/2000/svg"
 width="1936.000000pt" height="2646.000000pt" viewBox="0 0 1936.000000 2646.000000"
 preserveAspectRatio="xMidYMid meet">

<g transform="translate(0.000000,2750.00000000) scale(0.115000,-0.09700)"
fill="#ffffff" stroke="#ffffff">
<path d="M2748 26357 c-234 -425 -381 -875 -444 -1359 -21 -170 -29 -530 -15
-703 66 -791 381 -1540 906 -2150 89 -104 96 -115 123 -215 89 -322 34 -638
-162 -933 -168 -251 -334 -407 -672 -630 -389 -255 -607 -606 -729 -1169 -24
-113 -55 -317 -55 -363 l0 -24 75 38 c105 54 198 76 320 75 155 0 294 -52 405
-152 l52 -47 -36 -60 c-56 -92 -86 -199 -86 -303 0 -175 55 -298 195 -437 101
-101 184 -154 329 -212 91 -35 95 -38 69 -47 -15 -5 -98 -9 -183 -10 -142 0
-162 2 -235 27 -137 45 -252 125 -331 231 -93 124 -134 235 -143 389 l-6 98
-90 -61 c-131 -90 -215 -160 -349 -290 -203 -197 -347 -391 -456 -615 -221
-451 -256 -931 -105 -1456 91 -315 266 -656 458 -894 67 -82 76 -66 -93 -165
-344 -201 -676 -513 -909 -855 -133 -195 -224 -368 -316 -599 -44 -114 -108
-316 -101 -323 2 -2 37 9 77 25 213 85 380 122 543 122 166 0 275 -40 360
-130 52 -56 84 -115 131 -246 19 -53 47 -119 62 -147 33 -61 126 -163 193
-212 146 -108 398 -191 695 -229 156 -21 527 -39 635 -32 68 4 80 3 60 -6
-199 -91 -306 -161 -394 -259 -64 -71 -109 -140 -187 -291 -80 -155 -169 -250
-294 -315 -80 -42 -236 -93 -281 -93 -47 0 -38 -23 32 -87 322 -296 762 -407
1199 -303 44 10 87 21 97 25 13 5 17 -2 23 -37 13 -84 57 -244 92 -338 104
-279 263 -520 484 -736 146 -141 397 -329 416 -310 3 2 20 38 37 79 68 156
166 286 294 388 70 56 239 157 246 148 1 -2 12 -41 24 -86 89 -342 292 -682
551 -926 266 -249 610 -444 1415 -801 201 -90 718 -296 741 -296 1 0 5 41 8
91 23 318 190 578 469 729 126 68 236 102 404 124 l41 6 28 -78 c45 -126 149
-334 219 -439 140 -209 263 -327 538 -514 201 -137 289 -218 372 -342 100
-151 156 -308 180 -510 l12 -102 13 75 c17 97 80 288 121 370 111 222 261 381
525 560 351 237 552 497 671 870 21 63 38 116 40 118 5 7 174 -29 240 -52 300
-102 518 -318 607 -603 25 -78 53 -276 41 -294 -9 -15 6 -11 181 55 326 122
732 298 1139 495 592 286 898 525 1139 891 112 169 223 423 267 608 6 28 15
52 19 52 13 0 165 -91 218 -130 72 -55 155 -141 209 -216 47 -66 118 -201 129
-246 4 -16 13 -28 19 -28 7 0 58 31 114 69 467 317 763 758 872 1302 l11 56
95 -23 c398 -96 800 -21 1103 207 97 72 190 167 170 172 -8 3 -50 12 -94 22
-47 10 -124 38 -185 67 -91 44 -116 62 -185 132 -68 69 -90 100 -144 206 -82
160 -129 230 -207 306 -79 79 -161 134 -288 195 l-101 49 85 -6 c120 -8 499
13 665 37 364 53 614 155 761 311 73 77 100 124 159 281 62 162 106 231 178
281 89 61 147 79 282 84 172 6 355 -32 566 -118 41 -16 77 -30 81 -30 23 0
-103 352 -191 535 -236 490 -582 886 -1037 1185 -72 47 -157 99 -188 116 -31
16 -56 32 -56 35 0 4 26 40 59 80 371 469 581 1104 541 1639 -48 631 -404
1202 -1010 1619 l-75 52 -7 -99 c-11 -174 -70 -311 -186 -434 -128 -136 -286
-207 -477 -216 -108 -4 -266 12 -248 27 4 4 33 15 63 25 30 10 93 39 140 63
255 133 410 356 410 588 0 94 -21 172 -75 280 l-45 89 28 29 c45 49 155 115
238 143 66 23 97 28 184 28 127 1 186 -13 308 -69 76 -36 92 -41 92 -27 0 75
-52 353 -103 557 -51 201 -177 467 -296 626 -109 145 -213 239 -409 370 -216
145 -318 227 -429 342 -276 289 -408 558 -420 859 -7 148 7 256 47 380 24 76
36 97 92 160 322 361 597 841 752 1310 190 577 234 1201 125 1783 -77 413
-260 910 -446 1207 l-23 38 -93 -68 c-683 -505 -1530 -972 -2374 -1308 -314
-125 -770 -284 -815 -284 -8 0 -117 29 -243 65 -1141 327 -2463 513 -3500 492
-1038 -21 -2177 -197 -3220 -496 -115 -34 -218 -61 -229 -61 -27 0 -401 126
-636 215 -876 332 -1710 776 -2455 1309 -93 66 -174 124 -180 128 -7 4 -33
-33 -67 -95z m667 -1010 c1235 -720 2436 -1571 3523 -2500 107 -91 193 -169
193 -173 0 -4 -50 -18 -110 -30 -712 -147 -1258 -660 -1440 -1355 -50 -192
-64 -297 -65 -497 l-1 -183 1527 -1003 c840 -552 1548 -1016 1574 -1031 l47
-27 -7 -52 c-3 -28 -6 -72 -6 -98 0 -27 -4 -48 -10 -48 -5 0 -775 475 -1710
1056 -936 581 -1703 1055 -1705 1052 -2 -2 98 -176 222 -388 l225 -384 -13
-118 c-18 -175 -7 -441 25 -594 148 -704 651 -1134 1449 -1239 415 -54 847 23
1247 221 91 46 167 81 169 79 2 -2 -56 -597 -128 -1322 -72 -725 -132 -1329
-134 -1342 -2 -21 9 -28 113 -71 161 -65 280 -127 401 -208 383 -256 539 -554
419 -799 -95 -192 -381 -372 -770 -484 -288 -82 -547 -110 -840 -91 -625 43
-1171 243 -1652 608 -131 100 -432 400 -527 526 l-73 97 -56 8 c-32 4 -147 8
-257 7 -165 -1 -218 -5 -301 -22 -291 -62 -551 -196 -770 -396 l-84 -77 -70
108 c-162 248 -266 517 -322 832 -18 102 -22 166 -22 333 -1 115 -4 208 -9
208 -4 0 -62 -18 -129 -40 -198 -66 -349 -94 -508 -94 -160 0 -256 14 -406 60
-286 86 -456 207 -553 393 -61 118 -82 203 -88 366 -6 148 6 246 48 387 l20
67 58 -34 c198 -116 475 -178 697 -155 233 24 410 96 621 254 259 192 438 458
562 831 93 279 121 420 121 606 0 192 -26 304 -107 459 -114 220 -333 396
-608 489 -56 19 -89 36 -87 43 1 7 43 53 94 101 153 148 355 267 558 331 103
33 290 66 371 66 72 0 69 -5 104 190 38 221 48 364 42 637 -7 333 -37 535
-128 849 l-41 141 -89 66 c-475 356 -870 857 -1068 1354 -140 353 -198 676
-188 1053 11 394 91 733 261 1103 l36 79 57 -33 c32 -18 166 -96 298 -172z
m12998 -37 c135 -340 192 -641 191 -1015 -1 -257 -19 -410 -74 -629 -161 -637
-579 -1245 -1156 -1682 -122 -93 -110 -74 -164 -259 -67 -229 -112 -510 -125
-780 -11 -226 20 -572 70 -794 l17 -71 63 0 c156 0 401 -62 570 -145 160 -78
342 -214 429 -319 l37 -46 -28 -12 c-194 -81 -324 -161 -439 -270 -314 -297
-428 -726 -314 -1183 64 -259 158 -446 321 -641 87 -104 181 -187 369 -328
164 -122 301 -200 415 -236 99 -31 273 -38 386 -16 154 31 332 116 466 223 49
39 69 50 74 40 4 -7 18 -60 30 -118 20 -88 23 -135 23 -304 1 -226 -14 -312
-77 -448 -68 -146 -147 -216 -351 -312 -339 -161 -584 -189 -931 -108 -60 14
-154 41 -209 59 -55 19 -101 34 -103 34 -2 0 -3 -78 -3 -172 0 -333 -71 -649
-211 -947 -50 -106 -153 -284 -194 -335 l-24 -30 -90 86 c-202 193 -470 330
-759 389 -125 26 -393 36 -517 20 -101 -13 -89 -4 -195 -142 -82 -106 -338
-364 -450 -453 -436 -347 -940 -557 -1515 -632 -187 -25 -543 -25 -690 0 -544
89 -980 310 -1108 561 -42 83 -49 200 -17 295 88 262 447 545 895 706 72 26
90 36 88 51 -107 799 -191 1534 -257 2243 -20 206 -37 394 -39 417 l-4 41 61
-35 c169 -96 370 -177 570 -228 558 -142 1189 -48 1626 244 107 71 263 220
345 330 196 260 305 617 305 993 0 104 -14 271 -25 308 -4 13 128 246 406 718
27 45 45 82 41 82 -4 0 -774 -477 -1712 -1059 l-1705 -1058 -8 94 c-5 51 -7
100 -4 107 3 7 27 26 54 41 44 26 3071 2011 3083 2022 12 12 2 336 -14 442
-97 640 -449 1142 -996 1420 -63 32 -159 75 -212 95 -105 39 -325 96 -370 96
-16 0 -28 4 -28 9 0 9 274 245 554 475 1006 829 2167 1629 3336 2300 l185 106
31 -62 c17 -35 52 -115 77 -178z m-8774 -778 c97 -146 541 -905 712 -1219 31
-57 37 -63 67 -63 17 0 204 13 415 30 961 74 1540 109 1923 117 295 6 393 1
363 -18 -80 -51 -889 -189 -2171 -370 -326 -46 -378 -56 -378 -70 0 -34 60
-199 103 -285 168 -332 450 -553 827 -647 117 -29 377 -31 495 -3 329 77 594
256 770 521 85 128 177 338 152 348 -7 2 -184 26 -394 53 -211 27 -383 51
-383 54 0 3 212 35 472 72 259 37 472 69 473 70 2 2 101 165 221 363 387 640
588 954 602 940 24 -23 -831 -1615 -2144 -3992 l-78 -142 -24 42 c-52 91
-1167 2316 -1430 2852 -476 970 -703 1465 -661 1440 5 -4 36 -46 68 -93z m-85
-2343 c-53 -107 -111 -291 -135 -430 -18 -107 -21 -150 -16 -309 6 -192 25
-308 78 -468 20 -60 53 -98 1096 -1240 591 -647 1082 -1184 1089 -1192 12 -13
21 -8 68 40 30 30 522 567 1094 1193 l1039 1139 27 86 c59 194 70 271 70 492
0 173 -4 221 -22 307 -28 131 -72 264 -121 369 -22 46 -36 84 -33 84 18 0 176
-87 267 -147 132 -88 337 -292 424 -422 137 -206 226 -451 247 -677 l6 -69
-198 -150 c-721 -543 -1455 -1184 -1947 -1700 -177 -185 -404 -437 -468 -518
l-22 -29 103 -1489 c57 -819 100 -1492 97 -1495 -3 -4 -142 -42 -309 -85
l-303 -78 -293 75 c-161 41 -301 78 -311 82 -16 7 -10 105 86 1500 l104 1494
-88 101 c-313 365 -806 859 -1238 1238 -311 274 -782 656 -1142 928 l-163 122
0 44 c0 70 38 246 76 357 131 376 390 671 769 875 44 23 86 43 93 43 8 0 -1
-26 -24 -71z m1256 -5014 c-7 -9 -15 -13 -19 -10 -3 3 1 10 9 15 21 14 24 12
10 -5z m100 11 c0 -2 -7 -7 -16 -10 -8 -3 -12 -2 -9 4 6 10 25 14 25 6z m1575
-7 c11 -17 -1 -21 -15 -4 -8 9 -8 15 -2 15 6 0 14 -5 17 -11z m86 -6 c13 -16
12 -17 -3 -4 -17 13 -22 21 -14 21 2 0 10 -8 17 -17z m5840 -2678 c311 -79
614 -239 849 -448 128 -114 304 -317 282 -325 -6 -2 -28 2 -49 8 -62 18 -262
25 -321 11 -73 -18 -137 -62 -163 -113 -18 -35 -23 -68 -29 -183 -10 -196 -39
-264 -163 -382 -149 -143 -391 -252 -747 -337 -293 -70 -571 -106 -817 -106
l-141 0 44 -107 c24 -59 56 -157 71 -218 26 -102 28 -125 28 -315 0 -225 -10
-296 -66 -465 -37 -111 -113 -273 -131 -280 -8 -3 -257 98 -553 224 -296 127
-540 229 -542 228 -1 -2 -14 -43 -28 -92 -181 -625 -613 -1171 -1199 -1514
l-88 -52 6 33 c25 142 14 288 -33 425 -83 241 -287 427 -557 509 -80 24 -105
27 -254 28 l-164 1 -7 -35 c-63 -301 -97 -420 -175 -612 -71 -175 -176 -369
-277 -508 l-39 -55 7 41 c13 84 -31 221 -93 288 -70 74 -181 113 -291 101 -50
-5 -87 -19 -166 -59 -406 -211 -711 -561 -849 -977 -33 -100 -65 -233 -67
-281 0 -13 -10 20 -20 72 -103 498 -410 911 -869 1166 -165 92 -277 106 -396
48 -121 -58 -205 -209 -192 -345 3 -28 2 -47 -2 -42 -30 31 -163 251 -219 363
-117 232 -190 442 -240 695 l-28 140 -159 0 c-173 -1 -236 -12 -365 -66 -137
-56 -280 -169 -358 -283 -44 -63 -95 -176 -117 -256 -19 -69 -26 -293 -12
-358 l8 -34 -48 27 c-89 51 -297 193 -382 261 -105 84 -304 282 -390 388 -205
254 -382 590 -466 887 -15 52 -28 95 -29 96 -1 2 -244 -100 -541 -227 -296
-126 -544 -230 -550 -230 -10 0 -79 138 -119 235 -34 83 -74 266 -85 387 -21
216 15 449 100 657 22 53 40 100 40 104 0 4 -62 7 -137 7 -175 0 -323 14 -540
50 -317 53 -554 121 -749 215 -139 66 -213 115 -293 196 -108 110 -150 227
-151 423 0 130 -48 196 -166 232 -61 18 -211 18 -310 -1 -43 -8 -80 -13 -82
-10 -9 9 149 194 234 275 221 209 472 358 764 454 126 41 322 86 373 86 22 -1
22 -1 -3 -21 -14 -11 -54 -44 -89 -72 -137 -112 -265 -313 -297 -467 -43 -206
20 -423 178 -608 154 -181 454 -377 706 -461 193 -65 271 -75 542 -75 178 0
266 5 322 16 43 8 78 14 78 12 0 -1 -19 -31 -41 -65 -52 -78 -120 -221 -152
-319 -74 -227 -75 -528 -3 -749 11 -36 26 -65 31 -65 6 1 264 75 574 164 310
88 565 159 568 156 3 -3 9 -44 15 -93 48 -452 272 -846 628 -1107 58 -43 175
-116 185 -116 2 0 21 33 41 73 60 119 123 207 224 308 167 168 345 266 573
315 160 34 382 28 551 -14 l69 -18 54 -89 c152 -253 377 -487 614 -638 31 -20
123 -73 205 -117 82 -45 187 -107 233 -138 237 -157 471 -402 636 -666 l48
-77 49 83 c131 217 265 383 421 518 128 112 227 177 448 291 214 111 297 163
419 265 151 125 277 275 393 464 l64 105 67 17 c334 84 678 27 960 -160 146
-96 316 -294 392 -457 16 -33 29 -61 30 -63 4 -7 72 33 159 92 113 77 278 235
361 346 82 110 182 306 228 449 38 117 76 311 76 387 0 24 3 44 8 44 4 0 265
-74 580 -164 l573 -164 11 27 c66 172 86 465 44 659 -34 158 -103 323 -191
456 -24 37 -38 65 -30 62 8 -3 68 -13 132 -22 164 -22 455 -15 606 15 248 50
483 160 704 329 89 68 214 195 262 265 76 111 131 276 131 389 0 227 -144 480
-370 650 -30 23 -59 45 -63 49 -13 10 157 -19 264 -46z m-6241 -897 c294 -117
536 -212 537 -213 2 -1 12 -179 24 -396 11 -217 24 -402 27 -411 7 -16 85 143
245 502 38 85 71 157 72 159 2 2 116 -59 254 -135 l249 -139 -25 -35 c-169
-228 -415 -460 -653 -616 -273 -179 -565 -292 -881 -341 -149 -23 -460 -23
-606 1 -480 76 -887 286 -1245 640 -151 148 -359 410 -341 427 8 7 426 175
450 181 8 2 32 -44 62 -117 26 -66 80 -184 119 -263 124 -247 162 -307 162
-254 1 45 79 824 83 829 12 12 894 391 912 392 11 1 261 -94 555 -211z"/>
<path d="M3326 24842 c-10 -32 -36 -187 -46 -276 -16 -131 -13 -441 5 -581 18
-144 73 -370 123 -509 50 -140 176 -390 260 -516 157 -236 400 -495 612 -654
123 -92 112 -69 170 -356 143 -705 131 -1386 -37 -2085 -19 -82 -37 -151 -38
-153 -2 -2 -36 -8 -77 -13 -141 -17 -274 -69 -394 -154 -99 -71 -99 -62 2
-168 360 -372 443 -890 243 -1501 -172 -523 -604 -995 -1174 -1278 -69 -35
-125 -66 -125 -70 0 -15 228 -119 312 -143 186 -52 398 -53 591 -1 48 12 87
22 87 22 0 -1 -11 -50 -25 -110 -60 -269 -57 -537 11 -808 25 -100 70 -237 83
-251 4 -4 135 8 292 27 516 64 1137 136 1167 136 24 0 33 -8 57 -52 16 -29 64
-105 106 -168 328 -489 786 -810 1414 -991 434 -124 894 -145 1189 -52 200 63
343 172 411 315 44 93 53 156 31 230 -41 141 -201 254 -450 318 -71 18 -137
28 -309 46 l-58 6 6 31 c3 18 73 563 155 1212 83 649 153 1191 156 1204 6 29
2 28 -151 -27 -632 -229 -1347 -151 -1885 205 -149 99 -357 304 -449 442 -145
219 -240 474 -271 731 -13 112 -13 362 1 472 l12 88 -207 439 -207 438 118
626 117 626 -48 70 c-50 74 -106 126 -190 180 -28 17 -43 31 -35 31 24 0 190
-47 263 -74 38 -15 71 -25 73 -22 2 2 -24 46 -59 97 -80 120 -207 248 -328
328 -117 78 -113 74 -65 66 162 -27 305 -87 424 -178 114 -87 126 -77 61 50
-110 213 -311 423 -552 576 -89 56 -90 57 -54 57 20 0 80 -5 134 -11 310 -33
580 -130 823 -294 62 -42 115 -74 120 -73 4 2 60 60 123 131 l116 127 -56 113
c-115 229 -280 483 -459 707 -510 639 -1198 1117 -2027 1409 -79 27 -87 28
-92 13z"/>
<path d="M15880 24596 c-822 -301 -1483 -767 -1986 -1402 -156 -196 -302 -421
-429 -661 l-49 -91 123 -130 122 -131 94 63 c274 185 573 285 925 311 l95 7
-90 -57 c-132 -83 -219 -152 -316 -252 -106 -109 -197 -230 -245 -329 -53
-106 -39 -113 68 -36 132 96 273 154 432 176 l38 5 -61 -37 c-107 -65 -181
-124 -261 -209 -80 -84 -188 -235 -172 -241 5 -1 39 9 76 23 66 25 246 75 269
75 7 0 -17 -17 -52 -37 -78 -47 -147 -112 -197 -187 l-38 -58 117 -612 117
-613 -206 -429 -206 -429 12 -111 c18 -155 8 -429 -20 -558 -72 -335 -203
-581 -434 -811 -139 -138 -263 -229 -427 -314 -193 -101 -380 -163 -619 -208
-139 -26 -583 -25 -725 1 -149 27 -313 71 -428 114 -56 22 -103 39 -104 38 -1
-1 70 -546 157 -1211 87 -666 156 -1213 153 -1217 -2 -5 -32 -8 -66 -8 -80 0
-240 -24 -337 -51 -107 -29 -248 -100 -309 -155 -75 -67 -105 -131 -106 -220
0 -62 5 -79 39 -150 130 -264 483 -393 992 -363 697 41 1411 358 1810 805 130
146 259 324 335 461 l16 30 124 -14 c191 -21 1223 -142 1292 -152 44 -6 64 -5
69 3 20 29 69 183 92 286 59 265 56 547 -9 794 -9 32 -14 60 -13 61 2 2 46 -9
98 -23 86 -24 112 -26 280 -26 169 0 194 3 285 27 93 25 325 128 325 145 0 4
-58 35 -128 70 -233 115 -420 243 -627 429 -222 201 -364 365 -466 538 -273
463 -278 1110 -12 1533 66 105 148 207 216 267 58 53 58 52 -39 121 -116 83
-255 135 -400 151 l-69 8 -27 105 c-190 724 -196 1489 -17 2240 l30 125 51 35
c90 61 209 161 317 265 413 400 668 896 737 1437 22 177 15 530 -15 691 -24
130 -29 147 -44 147 -7 -1 -77 -25 -157 -54z"/>
<path d="M17135 6384 c-147 -18 -250 -43 -359 -87 -480 -196 -1047 -815 -1379
-1507 -189 -393 -229 -583 -230 -1105 -1 -259 9 -350 60 -525 55 -193 180
-473 256 -576 281 -382 876 -686 1507 -770 148 -20 410 -22 525 -5 417 63 822
274 1164 606 373 362 535 691 635 1285 38 225 49 380 43 593 -6 215 -23 340
-71 531 -102 404 -335 817 -616 1096 -251 250 -515 386 -885 457 -116 22 -495
26 -650 7z m760 -1048 c165 -81 259 -351 241 -696 -31 -614 -340 -1231 -781
-1563 -167 -125 -393 -225 -592 -263 -156 -29 -256 -3 -338 88 -83 92 -110
208 -102 436 8 219 50 396 154 642 211 496 757 1175 1075 1336 117 59 247 67
343 20z"/>
<path d="M1620 6374 c-480 -32 -841 -110 -1235 -266 -129 -51 -376 -169 -373
-178 2 -4 149 -141 328 -305 179 -163 333 -305 342 -314 17 -15 16 -23 -6
-146 -176 -952 -174 -1953 5 -2825 172 -836 465 -1520 947 -2208 76 -109 87
-121 94 -100 3 13 16 149 27 303 62 837 73 1239 42 1615 -11 140 -25 356 -31
480 -5 124 -12 269 -14 323 -4 80 -3 97 9 97 25 0 231 -58 415 -116 562 -179
1378 -517 2254 -935 148 -71 271 -127 274 -125 9 9 -41 216 -85 348 -52 159
-164 393 -253 528 -252 383 -627 707 -1081 934 l-166 83 101 58 c512 292 879
668 1005 1029 80 228 79 430 -3 660 -42 118 -90 204 -165 298 -339 426 -1051
701 -1961 758 -152 9 -360 11 -470 4z m1025 -1204 c157 -17 272 -46 360 -90
44 -22 91 -49 105 -61 l25 -21 -48 -43 c-111 -97 -399 -246 -742 -382 -220
-88 -613 -229 -619 -222 -5 5 20 317 35 434 13 110 42 250 66 330 l19 60 74 6
c105 10 605 1 725 -11z"/>
<path d="M14008 6267 c-268 -358 -426 -763 -484 -1238 -20 -162 -22 -554 -5
-769 18 -218 59 -624 82 -810 55 -440 136 -692 309 -954 183 -277 444 -523
760 -712 122 -73 177 -100 186 -91 9 9 62 280 80 415 22 158 25 562 6 697 -7
50 -33 205 -57 345 -77 441 -79 467 -79 770 -1 318 4 352 90 695 46 181 56
241 61 336 15 302 -120 657 -364 959 -83 103 -288 301 -401 388 -52 40 -97 72
-100 72 -4 0 -41 -46 -84 -103z"/>
<path d="M11003 6329 c-174 -16 -387 -93 -559 -201 -580 -363 -1176 -1300
-1393 -2191 -64 -259 -76 -354 -76 -587 0 -220 9 -293 53 -415 112 -317 619
-823 1032 -1030 278 -140 776 -141 1300 -4 344 90 552 169 1120 423 162 73
325 145 361 160 133 55 261 189 345 362 149 306 125 626 -68 916 -33 48 -62
88 -66 88 -4 0 -20 -34 -36 -76 -66 -172 -211 -341 -362 -421 -152 -81 -265
-103 -769 -153 -610 -61 -833 -102 -1430 -265 -159 -44 -250 -50 -292 -19
-165 119 -77 627 218 1268 110 237 242 420 459 636 69 69 166 154 215 189 102
72 214 131 247 131 32 0 164 -52 282 -111 309 -155 558 -384 737 -677 l58 -95
12 29 c24 64 59 246 69 362 18 206 -6 394 -80 613 -86 260 -232 493 -430 689
-280 278 -613 411 -947 379z"/>
<path d="M6275 6304 c-373 -29 -702 -88 -1025 -185 -149 -45 -197 -69 -252
-126 -161 -166 -91 -507 159 -772 l82 -87 -34 -270 c-108 -857 -171 -1779
-146 -2124 10 -140 12 -148 52 -228 75 -153 259 -371 430 -508 157 -128 327
-204 453 -204 80 0 86 2 356 127 513 239 738 317 1055 370 168 28 604 25 769
-6 161 -29 333 -88 483 -165 141 -73 136 -79 69 75 -170 387 -489 704 -871
865 -259 110 -480 154 -802 161 -294 7 -542 -20 -791 -86 l-72 -19 2 246 3
246 80 19 c464 111 1975 490 1975 495 0 14 -239 156 -384 229 -450 226 -975
368 -1478 399 -90 6 -108 10 -108 23 0 9 17 104 39 211 l38 195 112 32 c241
69 575 135 871 172 259 33 467 43 819 39 l333 -3 -73 69 c-41 38 -119 106
-174 151 -112 92 -518 383 -640 459 -166 103 -327 163 -500 186 -86 11 -724
22 -830 14z"/>
</g>
</svg>
