<?xml version="1.0" standalone="no"?>
<!DOCTYPE svg PUBLIC "-//W3C//DTD SVG 20010904//EN"
 "http://www.w3.org/TR/2001/REC-SVG-20010904/DTD/svg10.dtd">
<svg version="1.0" xmlns="http://www.w3.org/2000/svg"
 width="3008.000000pt" height="1364.000000pt" viewBox="0 0 3008.000000 1364.000000"
 preserveAspectRatio="xMidYMid meet">

<g transform="translate(0.000000,1364.000000) scale(0.100000,-0.100000)"
fill="#f39200" stroke="none">
<path d="M3400 13619 c-1004 -53 -1928 -271 -2845 -669 -170 -74 -545 -259
-545 -269 0 -7 1418 -1317 1459 -1347 13 -10 13 -22 -3 -110 -110 -607 -176
-1059 -225 -1544 -219 -2156 -26 -4209 574 -6115 290 -921 738 -1872 1303
-2765 202 -320 545 -806 549 -780 10 58 90 1132 118 1565 67 1069 83 1985 40
2435 -29 309 -55 655 -70 930 -21 401 -48 1140 -41 1147 12 12 485 -120 891
-247 1282 -404 3176 -1196 5185 -2169 135 -65 246 -117 248 -116 6 5 -38 223
-78 382 -338 1369 -1230 2504 -2595 3302 -142 83 -534 284 -657 337 -38 15
-68 31 -68 34 0 3 33 23 73 44 173 94 377 218 577 351 1019 675 1648 1452
1805 2228 145 716 -108 1465 -680 2015 -807 778 -2275 1272 -4045 1362 -222
11 -754 11 -970 -1z m2130 -2553 c341 -33 524 -66 715 -130 162 -54 317 -138
415 -225 l35 -31 -59 -55 c-265 -246 -948 -595 -1824 -931 -414 -159 -1130
-410 -1140 -399 -3 2 1 82 7 177 51 747 112 1153 226 1508 l37 112 711 -5
c550 -4 750 -8 877 -21z"/>
<path d="M27115 11414 c-121 -10 -337 -36 -415 -50 -665 -121 -1460 -832
-2062 -1844 -183 -308 -350 -671 -432 -942 -71 -236 -85 -346 -106 -834 -24
-566 28 -871 231 -1346 133 -313 218 -446 404 -633 450 -453 1223 -796 2010
-891 193 -23 539 -23 700 0 485 70 944 276 1405 632 137 106 425 390 533 526
225 283 387 580 472 866 290 979 293 1862 9 2620 -120 319 -320 676 -535 952
-92 118 -286 320 -402 417 -332 277 -720 445 -1177 508 -111 16 -524 28 -635
19z m-279 -857 c21 -25 25 -39 22 -76 -3 -45 -2 -46 27 -46 26 0 30 -4 38 -42
5 -29 14 -44 28 -48 18 -6 20 -14 17 -67 -4 -75 17 -93 27 -24 8 50 12 53 39
33 17 -12 17 -18 -3 -122 -22 -110 -19 -131 16 -118 10 4 13 -6 13 -38 0 -32
-8 -56 -30 -89 -33 -50 -38 -89 -14 -125 13 -20 15 -40 9 -107 -7 -87 -21
-148 -34 -148 -5 0 -22 5 -40 11 -22 8 -31 17 -31 34 0 49 -12 84 -27 78 -8
-3 -40 -6 -71 -7 -52 -1 -57 -3 -60 -25 -2 -13 2 -43 8 -67 10 -36 10 -46 -4
-65 -20 -29 -21 -65 -2 -72 17 -7 22 4 31 67 l7 47 42 -3 c40 -3 41 -4 48 -48
4 -25 10 -59 13 -76 5 -20 1 -42 -9 -62 -9 -17 -16 -55 -16 -84 0 -32 -6 -62
-16 -76 -26 -38 -37 -27 -31 31 5 41 2 63 -15 105 -19 46 -25 53 -48 50 -17
-2 -26 -10 -28 -26 -2 -13 -10 -26 -18 -29 -27 -10 -16 -43 20 -58 33 -14 33
-14 33 -82 0 -73 -8 -93 -39 -93 -24 0 -33 23 -18 50 14 26 6 36 -33 46 l-28
6 7 -50 c10 -75 1 -96 -45 -114 -22 -9 -42 -13 -45 -10 -3 3 -6 25 -6 50 0 58
-20 51 -36 -13 -14 -54 -28 -67 -62 -58 -16 4 -31 -2 -47 -17 -17 -16 -31 -21
-48 -16 -21 5 -26 1 -31 -19 -5 -19 -13 -25 -35 -25 -25 0 -30 5 -36 37 -9 50
-35 113 -46 113 -11 0 -10 0 -35 -85 l-17 -60 -13 30 c-7 17 -13 48 -14 71 0
22 -7 49 -15 60 -14 19 -15 18 -21 -4 -5 -16 -13 -22 -27 -20 -33 5 -44 32
-28 70 7 18 17 58 21 88 4 30 11 66 15 79 5 15 3 26 -6 32 -21 13 -29 11 -29
-9 0 -10 -11 -33 -25 -52 -18 -25 -25 -46 -25 -81 0 -95 -22 -105 -46 -22 -23
79 -15 204 16 245 34 46 38 132 11 207 -22 58 -22 60 -6 120 12 39 25 65 40
75 19 12 25 28 30 80 7 61 9 65 35 71 39 9 54 29 46 65 -5 27 -3 30 20 30 30
0 60 -14 92 -43 22 -20 22 -20 37 -1 24 31 18 76 -15 115 -24 29 -34 35 -56
31 -24 -4 -25 -3 -14 17 6 12 22 27 36 33 13 6 24 14 24 17 0 3 9 17 19 31 16
20 22 22 35 11 18 -15 36 -7 36 16 0 35 33 133 45 133 6 0 20 9 30 20 21 24
44 25 71 5 49 -37 104 -8 150 80 30 57 27 55 114 69 28 4 50 -6 76 -37z m1184
-22 c7 -4 16 -2 21 6 5 9 34 15 83 17 65 4 79 1 102 -17 15 -12 37 -21 49 -21
32 0 65 -30 124 -109 74 -99 99 -160 111 -271 22 -212 40 -406 40 -427 0 -14
-6 -23 -15 -23 -8 0 -15 -1 -15 -2 0 -2 7 -25 15 -52 16 -51 19 -205 7 -284
l-7 -43 -34 35 c-73 76 -85 18 -15 -67 27 -32 32 -94 13 -159 -11 -43 -29 -51
-29 -13 0 18 -5 25 -20 25 -17 0 -20 -7 -20 -39 0 -35 -3 -39 -30 -45 -19 -3
-48 -25 -77 -56 -34 -37 -53 -50 -73 -50 -24 0 -34 -11 -76 -87 -27 -49 -53
-87 -59 -86 -5 1 -12 19 -15 40 -5 37 -6 38 -45 37 -22 0 -59 -4 -82 -9 -40
-7 -43 -6 -43 14 0 15 -15 28 -61 51 -33 17 -65 30 -71 28 -6 -2 14 -29 45
-59 32 -31 57 -59 57 -64 0 -8 -63 -2 -91 9 -11 5 -19 -2 -28 -20 -10 -22 -9
-31 4 -50 14 -22 14 -24 -2 -24 -30 0 -120 47 -137 71 -9 13 -16 36 -16 51 0
33 -13 43 -30 23 -12 -15 -9 -101 6 -139 9 -23 -18 -20 -50 5 -27 21 -72 97
-62 106 2 3 12 -9 21 -26 28 -55 42 -41 56 55 5 36 19 83 31 104 l23 38 -26
25 c-24 21 -26 29 -21 75 3 34 1 52 -6 52 -17 0 -42 -54 -42 -90 0 -20 -5 -30
-15 -30 -12 0 -15 13 -15 57 0 70 -26 105 -71 96 -17 -3 -36 1 -50 11 -13 9
-32 16 -41 16 -41 0 -52 121 -24 258 20 100 32 132 47 132 9 0 10 -23 6 -85
-3 -47 -2 -85 2 -85 4 0 21 43 37 96 29 97 37 108 85 118 44 9 84 126 44 126
-33 0 0 94 40 112 14 6 28 22 31 35 7 28 -21 99 -43 107 -19 8 -33 -1 -33 -20
0 -21 -18 -17 -30 6 -17 32 5 93 60 162 27 35 81 114 121 176 39 62 83 122 97
133 l26 20 8 -22 c9 -22 9 -22 39 14 42 51 116 65 169 32z m-2634 -1629 c12
-20 26 -26 62 -28 41 -3 48 -7 56 -31 9 -24 6 -31 -23 -61 -33 -34 -38 -65
-12 -74 10 -3 12 1 8 17 -5 19 -1 21 43 21 63 0 100 -28 100 -76 0 -38 2 -39
30 -22 17 11 32 9 92 -12 69 -24 74 -28 101 -77 24 -45 33 -53 57 -53 42 0 70
-39 63 -90 -6 -45 15 -80 48 -80 31 0 49 -38 42 -87 -3 -26 0 -60 7 -84 12
-37 12 -41 -10 -64 -22 -23 -25 -24 -47 -9 -22 14 -26 13 -54 -10 -41 -35
-102 -50 -151 -38 -31 8 -40 7 -47 -5 -6 -11 -19 -14 -46 -11 l-37 4 8 -60
c11 -78 11 -191 0 -238 l-8 -36 72 -23 c77 -25 93 -41 67 -66 -14 -15 -21 -14
-75 1 -94 26 -130 0 -42 -31 51 -18 64 -32 54 -58 -16 -41 -89 -29 -174 27
-61 41 -62 42 -103 28 -23 -7 -66 -13 -94 -12 -48 1 -53 -1 -59 -23 -9 -38 2
-55 35 -55 20 0 35 8 49 27 14 19 24 24 38 19 18 -7 17 -8 -6 -26 -14 -11 -42
-27 -63 -36 -36 -17 -39 -20 -34 -51 8 -47 -11 -51 -86 -20 -34 14 -86 27
-115 30 -64 5 -82 19 -64 47 28 45 5 83 -36 61 -12 -6 -27 -8 -36 -5 -23 9
-68 87 -116 201 -41 97 -42 104 -27 121 21 24 21 42 0 57 -23 17 -38 144 -19
163 10 10 12 30 9 71 -7 72 7 101 47 101 24 0 34 8 55 43 33 58 32 69 -7 65
-31 -3 -33 -1 -30 25 2 16 12 47 23 70 10 23 19 52 19 64 0 17 27 35 148 97
136 70 262 152 270 176 7 20 -54 9 -91 -16 -31 -20 -41 -23 -53 -14 -34 29 -2
64 57 62 l40 -2 -2 46 c-4 64 35 88 67 40z m3400 -171 c11 -11 38 -15 95 -15
73 0 79 -2 79 -20 0 -13 12 -26 35 -37 27 -13 35 -23 35 -44 0 -29 15 -39 60
-39 20 0 30 6 35 23 8 22 8 22 12 -3 3 -14 9 -29 14 -34 5 -6 9 -18 9 -28 0
-11 10 -20 28 -24 80 -19 92 -61 36 -124 -34 -37 -36 -43 -25 -67 14 -30 -1
-60 -51 -103 -26 -23 -28 -28 -18 -60 5 -19 10 -67 10 -107 0 -56 4 -74 16
-81 14 -8 14 -12 3 -30 -10 -16 -20 -20 -39 -15 -24 6 -24 5 -7 -14 24 -27 21
-47 -11 -85 -57 -67 -129 -174 -143 -213 -11 -30 -21 -41 -39 -43 -14 -2 -31
-9 -37 -14 -18 -14 -16 -81 2 -125 22 -51 19 -79 -11 -102 -39 -30 -83 -35
-152 -16 -60 17 -61 17 -88 -4 -19 -15 -41 -21 -75 -21 -41 0 -51 4 -65 25 -9
14 -20 25 -25 25 -5 0 -20 -25 -33 -55 -27 -60 -26 -75 14 -157 15 -30 32 -49
46 -52 13 -4 27 -14 32 -24 21 -44 -19 -525 -54 -643 -34 -114 -101 -225 -181
-301 -46 -42 -138 -98 -163 -98 -15 0 -12 27 6 55 15 23 15 27 -1 51 -22 34
-13 56 22 52 24 -3 28 1 28 22 0 18 -6 26 -22 28 -19 3 -22 9 -20 39 2 44 -14
52 -43 21 -18 -19 -21 -32 -18 -80 l4 -57 -40 -13 c-36 -11 -42 -17 -46 -48
-5 -34 -6 -35 -52 -34 -45 0 -47 -1 -55 -35 -5 -19 -14 -36 -20 -38 -7 -3 -9
3 -6 16 3 13 -4 32 -21 52 -14 17 -26 35 -26 40 0 5 -11 9 -25 9 -14 0 -25 -2
-25 -4 0 -2 13 -32 29 -66 31 -66 31 -85 0 -93 -33 -9 -46 17 -53 108 -3 48
-10 94 -15 103 -9 16 -12 -2 -27 -146 -4 -42 -11 -65 -21 -69 -30 -11 -124 18
-156 49 -28 26 -37 29 -72 24 -53 -8 -83 11 -66 42 16 29 14 32 -14 32 -16 0
-25 -6 -25 -15 0 -26 -30 -29 -55 -5 -13 12 -29 19 -35 15 -7 -4 -29 1 -51 10
-47 21 -49 40 -13 94 18 28 23 46 18 65 -5 20 -2 26 10 26 20 0 21 16 1 23 -8
4 -21 22 -29 40 -18 44 -28 50 -59 36 -25 -11 -37 -35 -37 -73 0 -10 -20 -61
-45 -113 -36 -77 -57 -106 -112 -159 -70 -66 -81 -71 -115 -53 -30 16 -55 -10
-38 -40 13 -25 -1 -51 -27 -51 -7 0 -27 -9 -42 -21 -44 -32 -65 -23 -69 30
l-3 44 -40 -39 c-35 -34 -39 -36 -39 -16 0 48 -53 17 -76 -45 -10 -27 -26 -53
-35 -60 -9 -7 -26 -39 -39 -72 -31 -85 -43 -93 -151 -99 -85 -5 -91 -4 -87 14
2 14 14 20 47 24 52 6 69 30 22 30 -39 0 -39 13 -1 42 38 28 38 34 -2 35 -18
0 -42 2 -52 4 -15 3 -30 -11 -58 -53 -40 -60 -59 -69 -99 -48 -26 14 -24 27
12 104 24 52 30 76 27 116 -3 43 0 51 20 61 12 7 22 18 22 24 0 13 -40 52 -86
83 -36 24 -54 15 -54 -28 0 -16 -12 -37 -30 -55 -16 -15 -32 -42 -36 -59 -3
-17 -11 -37 -17 -44 -13 -17 0 -29 15 -14 7 7 17 27 23 44 8 25 15 32 30 30
34 -6 39 -19 22 -59 -8 -21 -18 -54 -22 -74 -3 -21 -12 -42 -20 -49 -32 -27
-166 86 -180 152 -4 16 -4 45 -1 64 6 27 4 34 -8 34 -16 0 -72 66 -138 164
-65 95 -63 175 3 140 38 -19 39 -19 39 24 0 31 -6 41 -39 64 l-38 27 -21 -22
-22 -21 0 24 c-1 17 -11 32 -32 45 -18 11 -35 31 -39 45 -13 48 -10 196 6 233
8 20 15 59 15 87 0 38 5 54 20 67 11 10 20 28 20 40 0 16 6 23 19 23 29 0 101
51 106 74 2 12 6 41 9 66 3 32 12 51 30 65 18 15 26 30 26 53 0 30 2 32 35 32
32 0 35 3 35 29 l0 29 113 3 114 4 73 63 c41 34 83 62 94 62 43 0 66 12 66 34
0 42 13 66 46 87 20 12 41 38 53 63 10 24 23 46 27 49 5 3 41 -1 79 -8 l70
-13 -30 24 c-16 13 -49 34 -72 46 -46 25 -54 38 -24 38 10 0 25 7 32 16 10 13
24 15 62 10 46 -7 50 -5 84 29 30 30 33 38 22 51 -7 9 -13 50 -15 104 -2 86
-1 89 27 116 16 16 29 38 29 52 0 19 4 23 18 17 38 -16 49 -15 75 5 16 13 27
31 27 46 0 20 -5 24 -32 24 -82 0 -98 25 -52 79 50 60 133 93 284 114 12 2 14
-7 12 -40 -4 -50 12 -57 46 -20 19 20 22 34 20 81 -2 54 0 60 29 87 54 47 187
77 199 44 4 -9 19 -15 36 -15 29 0 30 -2 24 -32 -4 -18 -24 -69 -46 -112 -38
-75 -49 -119 -32 -129 4 -3 19 -3 35 0 20 4 27 11 27 27 0 29 24 61 38 52 7
-4 9 -19 5 -36 -8 -43 21 -40 81 10 26 22 52 40 56 40 5 0 18 -12 29 -26 19
-24 19 -27 3 -60 -19 -41 -9 -67 28 -72 22 -4 23 -1 18 42 -3 26 -1 49 4 52
17 11 157 -64 207 -111 52 -49 65 -81 76 -189 3 -32 10 -67 15 -77 7 -13 7
-24 -1 -38 -10 -15 -6 -31 23 -94 29 -60 47 -83 87 -113 28 -21 51 -42 51 -46
0 -20 -35 -19 -72 2 -45 25 -53 21 -64 -37 -10 -51 -2 -68 29 -65 27 3 27 2
27 -57 0 -62 25 -136 54 -160 22 -18 42 -1 58 50 12 42 18 45 50 28 16 -9 24
-7 44 12 19 18 26 20 38 10 10 -9 29 -11 56 -6 l40 7 -20 28 c-11 15 -33 62
-49 105 -17 43 -38 86 -47 96 -15 17 -15 20 14 49 17 16 35 30 41 30 12 0 24
36 16 50 -4 6 -13 5 -25 -2 -25 -16 -39 -3 -47 46 l-6 37 27 -12 c44 -21 51 0
23 67 -26 60 -26 77 -3 68 7 -3 18 1 24 9 9 10 5 22 -14 49 -24 33 -25 39 -12
65 24 52 93 36 154 -34 16 -19 27 -23 44 -18 19 6 21 12 16 38 -8 37 -73 157
-86 157 -6 0 -10 9 -10 20 0 23 0 23 34 11 l25 -10 -19 54 -18 54 23 15 c15
10 27 30 31 51 3 20 31 74 61 120 50 77 62 88 126 124 40 22 89 43 110 46 27
5 42 15 49 31 13 28 15 29 34 9z"/>
<path d="M26155 9931 c-3 -5 5 -20 17 -33 13 -13 28 -33 34 -43 14 -25 44 -13
44 18 0 29 -24 52 -45 43 -9 -3 -18 1 -21 9 -7 17 -20 20 -29 6z"/>
<path d="M26730 9755 c0 -26 25 -45 59 -45 29 0 26 24 -5 49 -36 28 -54 27
-54 -4z"/>
<path d="M26415 9100 c-21 -41 -19 -45 20 -47 19 -1 35 0 35 3 0 11 -29 74
-34 74 -3 0 -12 -13 -21 -30z"/>
<path d="M27710 9005 c0 -30 32 -65 60 -65 29 0 25 27 -9 61 -36 36 -51 37
-51 4z"/>
<path d="M25264 8576 c-24 -18 -10 -46 29 -60 35 -13 38 -7 26 37 -11 40 -24
45 -55 23z"/>
<path d="M26894 8306 c-19 -14 -19 -15 6 -60 25 -48 28 -50 53 -40 11 4 14 16
10 47 -9 66 -29 82 -69 53z"/>
<path d="M27475 8089 c-11 -16 15 -68 37 -74 21 -7 66 18 75 42 4 9 -1 21 -12
29 -22 17 -91 19 -100 3z"/>
<path d="M27800 7722 c0 -32 16 -52 43 -52 14 0 17 5 11 23 -7 25 -33 57 -46
57 -4 0 -8 -13 -8 -28z"/>
<path d="M28250 7603 c1 -26 37 -103 50 -103 14 0 13 7 -9 65 -19 50 -41 71
-41 38z"/>
<path d="M28323 7343 c-7 -16 -22 -41 -35 -56 -28 -34 -16 -60 30 -65 27 -3
36 3 66 45 51 69 45 103 -19 103 -24 0 -33 -6 -42 -27z"/>
<path d="M27188 6423 c-9 -10 -18 -23 -20 -28 -3 -11 80 -91 87 -83 5 5 -33
109 -44 121 -4 4 -15 -1 -23 -10z"/>
<path d="M26060 6151 c-12 -24 -13 -51 -1 -51 16 0 61 41 61 56 0 21 -48 17
-60 -5z"/>
<path d="M22515 11323 c-381 -485 -625 -1027 -725 -1616 -46 -270 -55 -403
-54 -802 0 -414 5 -494 75 -1190 93 -929 153 -1210 339 -1590 127 -259 326
-531 555 -760 225 -225 512 -438 800 -594 120 -66 155 -80 155 -65 0 3 15 81
34 172 74 360 100 611 100 957 0 362 -8 422 -139 1170 -55 315 -76 519 -82
807 -9 397 13 573 127 1024 78 307 100 437 100 585 0 314 -122 695 -329 1029
-121 194 -340 456 -512 610 -131 118 -335 283 -386 314 -8 4 -29 -15 -58 -51z"/>
<path d="M18045 11301 c-325 -60 -636 -210 -945 -458 -110 -87 -373 -350 -479
-478 -563 -677 -1023 -1576 -1234 -2410 -94 -371 -121 -567 -122 -890 0 -265
7 -337 51 -505 66 -252 283 -562 641 -910 433 -423 871 -700 1193 -754 546
-91 1192 -13 1940 234 361 119 634 231 1210 495 140 65 316 142 390 172 168
69 253 123 355 227 325 329 448 848 303 1281 -39 115 -110 256 -187 371 -86
130 -83 129 -116 37 -63 -179 -156 -326 -289 -459 -240 -239 -464 -315 -1121
-379 -494 -48 -658 -66 -905 -101 -402 -57 -786 -139 -1205 -258 -342 -96
-462 -115 -538 -82 -283 121 -143 943 326 1917 218 451 741 1019 1123 1216
135 70 144 71 259 28 152 -55 426 -193 560 -282 332 -220 594 -493 796 -831
l73 -122 23 77 c13 43 34 132 48 198 109 544 24 1074 -252 1570 -320 573 -811
972 -1338 1087 -134 29 -425 34 -560 9z"/>
<path d="M11530 11284 c-397 -27 -524 -41 -790 -85 -302 -50 -599 -121 -865
-206 -142 -46 -196 -74 -261 -135 -104 -98 -139 -190 -138 -358 2 -270 133
-547 377 -797 l89 -92 -26 -193 c-85 -636 -167 -1470 -213 -2168 -21 -332 -25
-1131 -5 -1225 56 -268 483 -774 843 -998 231 -143 436 -196 599 -153 30 8
172 69 315 136 630 295 890 399 1220 485 425 112 945 142 1375 79 307 -45 613
-153 887 -313 l52 -31 -14 41 c-136 383 -381 741 -690 1007 -392 337 -861 530
-1465 604 -159 20 -648 16 -832 -5 -192 -23 -404 -60 -552 -97 -65 -17 -125
-30 -132 -30 -12 0 -14 56 -12 347 l3 347 190 47 c105 25 767 190 1473 365
l1284 319 -27 20 c-14 12 -96 64 -183 116 -737 443 -1568 702 -2442 760 -96 6
-175 12 -176 13 0 0 25 134 57 296 32 162 58 298 58 301 1 8 211 67 421 119
752 185 1564 269 2319 241 161 -7 295 -10 297 -8 5 5 -161 158 -286 263 -119
101 -275 220 -405 309 -55 38 -165 117 -245 174 -490 354 -731 458 -1145 491
-129 11 -849 21 -955 14z"/>
</g>
</svg>
